<?xml version="1.0" encoding="UTF-8" standalone="no"?>
<!-- Created with Inkscape (http://www.inkscape.org/) -->

<svg
   xmlns:dc="http://purl.org/dc/elements/1.1/"
   xmlns:cc="http://creativecommons.org/ns#"
   xmlns:rdf="http://www.w3.org/1999/02/22-rdf-syntax-ns#"
   xmlns:svg="http://www.w3.org/2000/svg"
   xmlns="http://www.w3.org/2000/svg"
   version="1.1"
   width="300"
   height="117.20507"
   viewBox="0 0 300 117.20507"
   id="svg20459">
  <defs
     id="defs20461" />
  <metadata
     id="metadata20464">
    <rdf:RDF>
      <cc:Work
         rdf:about="">
        <dc:format>image/svg+xml</dc:format>
        <dc:type
           rdf:resource="http://purl.org/dc/dcmitype/StillImage" />
        <dc:title></dc:title>
      </cc:Work>
    </rdf:RDF>
  </metadata>
  <g
     transform="translate(139.06689,-406.64883)"
     id="layer1">
    <g
       transform="matrix(1.745069,0,0,1.745069,-1819.2054,-557.15957)"
       id="g20392">
      <g
         transform="matrix(1.25,0,0,-1.25,1083.955,581.67804)"
         id="g8599">
        <path
           d="m 0,0 c 1.16,0.601 0.71,1.628 -0.1,1.876 0,0 -18.09,6.615 -19.01,6.767 -1.95,0.327 -3.21,-0.698 -4.41,-1.371 -8.33,-4.667 -16.19,-9.033 -24.45,-13.712 -2.91,-1.645 -5.96,-3.705 -10.81,-3.371 -1.32,0.091 -2.87,0.397 -4.42,0.914 -1.2,0.403 -3.01,1.155 -3,2.343 0.02,1.442 2.21,2.521 3.34,3.2 7.3,4.385 22.25,13.892 26.87,16.335 1.15,0.608 0.69,1.643 -0.12,1.891 0,0 -22.8,8.355 -22.91,8.393 -1.62,0.513 -2.6,0.222 -4.71,-1.255 -8,-5.685 -19.01,-12.47 -28.05,-18.964 -2.17,-1.559 -5.11,-3.744 -5.15,-7.257 -0.04,-3.532 3.05,-5.849 5.21,-7.258 5.04,-3.298 11.54,-5.131 18.16,-6.628 6.79,-1.533 14.15,-2.491 22.42,-2.228 7.77,0.245 14.31,2.208 19.87,4.914 C -22.95,-11.353 -2.34,-1.22 0,0 m 39.95,-14.781 c -1.52,2.238 -4.65,3.462 -7.36,4.458 C 25.28,-7.641 18.3,-5.125 10.92,-2.498 9.59,-2.025 7.63,-1.129 6.1,-1.18 4.06,-1.247 3.16,-1.919 1.57,-2.666 0.5,-3.17 -42.01,-23.644 -43.61,-24.43 c -0.94,-0.461 -0.73,-1.231 0.15,-1.481 4.77,-1.351 9.23,-2.493 13.79,-3.748 0.73,-0.202 1.67,-0.492 2.37,-0.55 1.84,-0.155 2.83,0.52 4.13,1.086 1.77,0.766 3.11,1.422 4.87,2.171 0.57,0.242 2.02,1.018 2.55,1.029 0.39,0.008 1.16,-0.294 1.75,-0.458 0.59,-0.163 1.2,-0.38 1.7,-0.514 8.02,-2.154 17.95,-3.728 27.85,-2.4 5.05,0.678 9.86,1.932 14.21,3.658 2.07,0.825 4.17,1.774 6.05,2.914 1.83,1.104 3.73,2.422 4.53,4.457 0.51,1.307 0.21,2.583 -0.39,3.485 m -28.34,-5.372 c -1.22,-0.494 -2.7,-0.928 -4.17,-1.081 -3.64,-0.376 -6.38,0.608 -9.01,1.425 3.21,1.514 7.22,3.274 10.58,4.685 0.06,0.026 0.16,0.074 0.23,0.058 0.96,-0.238 2.02,-0.614 3.09,-1.011 0.87,-0.316 2.26,-0.834 2.28,-1.733 0.03,-1.251 -2.07,-1.969 -3,-2.343"
           id="path8601"
           style="fill:#0079c1;fill-opacity:1;fill-rule:nonzero;stroke:none" />
      </g>
      <g
         transform="matrix(1.25,0,0,-1.25,1104.355,565.35304)"
         id="g8603">
        <path
           d="m 0,0 c 0.29,-0.038 0.59,-0.063 0.88,-0.091 l 0.08,-0.355 c -0.48,0.03 -0.98,0.036 -1.47,0.036 -0.46,0 -0.93,-0.004 -1.4,-0.037 l 0.07,0.353 c 0.25,0.031 0.49,0.054 0.73,0.092 0.03,0.426 0.03,1.755 0.03,2.357 l 0,0.279 c 0,0.205 0,1.302 -0.03,1.65 -0.24,0.051 -0.49,0.062 -0.74,0.084 L -1.9,4.713 -0.16,4.719 C 0.6,4.719 1.26,4.657 1.62,4.509 2.29,4.231 2.37,3.761 2.37,3.556 2.37,2.34 1.18,1.783 0.14,1.64 l 0.04,0.379 c 0.63,0.157 1.09,0.507 1.09,1.285 0,0.39 -0.19,0.7 -0.51,0.857 C 0.58,4.252 0.28,4.294 0,4.303 -0.02,3.985 -0.02,3.143 -0.02,2.613 l 0,-0.294 C -0.02,1.778 -0.02,0.381 0,0"
           id="path8605"
           style="fill:#0079c1;fill-opacity:1;fill-rule:nonzero;stroke:none" />
      </g>
      <g
         transform="matrix(1.25,0,0,-1.25,1110.6175,565.35804)"
         id="g8607">
        <path
           d="m 0,0 c 0.24,-0.042 0.48,-0.064 0.72,-0.087 l 0.09,-0.359 c -0.5,0.045 -1.02,0.04 -1.52,0.04 -0.4,0 -0.81,-0.01 -1.21,-0.035 l 0.07,0.356 c 0.24,0.014 0.49,0.049 0.73,0.088 0.02,0.395 0.03,1.549 0.03,2.182 l 0,0.41 c 0,0.212 -0.01,1.325 -0.03,1.687 -0.24,0.036 -0.48,0.065 -0.72,0.09 l -0.09,0.359 c 0.5,-0.052 1.03,-0.043 1.53,-0.043 0.39,0 0.81,0 1.21,0.045 L 0.72,4.372 C 0.48,4.347 0.24,4.306 0,4.275 -0.02,4.032 -0.03,3.325 -0.03,2.56 l 0,-0.432 C -0.03,1.3 -0.02,0.285 0,0"
           id="path8609"
           style="fill:#0079c1;fill-opacity:1;fill-rule:nonzero;stroke:none" />
      </g>
      <g
         transform="matrix(1.25,0,0,-1.25,1116.905,564.41929)"
         id="g8611">
        <path
           d="M 0,0 C -0.37,0.439 -0.69,0.843 -0.87,1.059 -1.12,0.723 -1.73,-0.234 -2,-0.764 c 0.17,-0.032 0.34,-0.058 0.51,-0.078 l 0.05,-0.343 -0.12,0 c -0.11,0 -0.7,0.027 -1.1,0.027 -0.31,0 -0.6,-0.014 -0.91,-0.039 l 0.12,0.355 c 0.15,0.023 0.32,0.038 0.47,0.095 0.3,0.2 1.49,1.787 1.81,2.192 -0.24,0.311 -0.57,0.738 -0.88,1.134 -0.31,0.407 -0.61,0.776 -0.77,0.947 -0.16,0.049 -0.32,0.071 -0.48,0.102 l -0.06,0.359 c 0.39,-0.065 0.81,-0.051 1.19,-0.051 0.44,0 0.88,0.015 1.32,0.036 L -0.95,3.62 C -1.12,3.601 -1.3,3.58 -1.47,3.547 -1.27,3.238 -0.76,2.485 -0.54,2.187 -0.3,2.509 0.17,3.191 0.38,3.551 L 0.26,3.575 C 0.15,3.594 0.05,3.608 -0.05,3.624 l -0.07,0.353 c 0.37,-0.032 0.73,-0.041 1.1,-0.041 0.28,0 0.56,0.016 0.84,0.039 L 1.79,3.633 C 1.62,3.59 1.46,3.559 1.29,3.519 L 1.23,3.463 C 0.99,3.233 0.77,2.976 0.55,2.728 0.23,2.363 -0.1,1.979 -0.25,1.799 0.52,0.742 1.28,-0.335 2.07,-1.375 L 1.51,-1.486 C 0.95,-1.069 0.45,-0.52 0,0"
           id="path8613"
           style="fill:#0079c1;fill-opacity:1;fill-rule:nonzero;stroke:none" />
      </g>
      <g
         transform="matrix(1.25,0,0,-1.25,1124.88,565.36804)"
         id="g8615">
        <path
           d="M 0,0 C -0.21,0.618 -0.4,1.265 -0.66,1.864 -0.97,1.859 -1.82,1.818 -2.13,1.784 -2.21,1.532 -2.49,0.518 -2.58,0 c 0.19,-0.042 0.38,-0.06 0.57,-0.079 l 0.07,-0.355 c -0.41,0.026 -0.83,0.036 -1.25,0.036 -0.31,0 -0.62,-0.011 -0.93,-0.039 l 0.05,0.358 c 0.21,0.02 0.42,0.048 0.63,0.091 0.27,0.539 1.42,3.633 1.67,4.298 -0.17,0.034 -0.34,0.051 -0.52,0.073 l -0.01,0.35 c 0.36,-0.025 0.72,-0.037 1.08,-0.037 0.46,0 0.92,0.006 1.38,0.037 L 0.11,4.381 C -0.06,4.363 -0.22,4.344 -0.38,4.308 -0.26,3.908 0.08,2.945 0.32,2.283 0.51,1.759 0.92,0.636 1.24,0.012 1.45,-0.028 1.66,-0.056 1.87,-0.084 l 0.06,-0.363 c -0.42,0.07 -0.93,0.049 -1.35,0.049 -0.43,0 -0.88,-0.005 -1.31,-0.039 l 0.08,0.359 C -0.43,-0.06 -0.21,-0.041 0,0 M -1.36,3.965 C -1.56,3.409 -1.85,2.642 -1.97,2.306 l 1.18,-0.023 c -0.14,0.434 -0.42,1.214 -0.57,1.682"
           id="path8617"
           style="fill:#0079c1;fill-opacity:1;fill-rule:nonzero;stroke:none" />
      </g>
      <g
         transform="matrix(1.25,0,0,-1.25,1128.8425,560.00554)"
         id="g8619">
        <path
           d="M 0,0 C -0.24,0.036 -0.49,0.054 -0.74,0.075 L -0.79,0.421 0.9,0.428 c 0.66,0 1.58,-0.006 2.07,-0.203 0.4,-0.159 0.67,-0.455 0.67,-0.891 0,-0.473 -0.5,-1.041 -1.01,-1.36 0.49,-0.833 1.43,-2.14 2.06,-2.808 L 4.09,-4.915 C 3.59,-4.684 2.05,-2.936 1.6,-2.401 1.41,-2.416 1.21,-2.431 1.08,-2.436 l 0,-0.082 c 0,-0.421 0.01,-1.377 0.03,-1.768 0.24,-0.04 0.48,-0.064 0.72,-0.083 L 1.9,-4.728 c -0.44,0.037 -0.89,0.04 -1.32,0.04 -0.46,0 -0.93,0 -1.38,-0.04 l 0.07,0.36 c 0.24,0.018 0.49,0.04 0.73,0.085 0.02,0.347 0.03,1.55 0.03,2.221 l 0,0.425 C 0.03,-1.401 0.02,-0.3 0,0 m 1.8,-1.892 c 0.28,0.106 0.72,0.401 0.72,1.029 0,0.356 -0.31,0.859 -1.41,0.888 -0.02,-0.404 -0.03,-1.478 -0.03,-1.93 l 0,-0.11 c 0.22,0.005 0.47,0.034 0.72,0.123"
           id="path8621"
           style="fill:#0079c1;fill-opacity:1;fill-rule:nonzero;stroke:none" />
      </g>
      <g
         transform="matrix(1.25,0,0,-1.25,1097.93,562.93554)"
         id="g8623">
        <path
           d="M 0,0 C 0,0.236 0.19,0.428 0.43,0.428 0.67,0.428 0.86,0.236 0.86,0 0.86,-0.237 0.67,-0.427 0.43,-0.427 0.19,-0.427 0,-0.237 0,0"
           id="path8625"
           style="fill:#0079c1;fill-opacity:1;fill-rule:nonzero;stroke:none" />
      </g>
      <g
         transform="matrix(1.25,0,0,-1.25,1061.1925,557.86679)"
         id="g8627">
        <path
           d="M 0,0 C 0.07,-0.001 0.23,0 0.33,0.016 0.4,0.03 0.46,0.058 0.46,0.128 0.46,0.144 0.45,0.154 0.44,0.164 0.31,0.331 0.1,0.264 -0.04,0.347 -0.05,0.351 -0.05,0.357 -0.05,0.362 -0.04,0.373 -0.04,0.383 -0.03,0.391 0.02,0.439 0.11,0.464 0.18,0.48 0.19,0.481 0.21,0.486 0.21,0.487 0.23,0.49 0.24,0.491 0.26,0.494 0.27,0.497 0.28,0.498 0.28,0.498 1.95,0.761 3.57,0.452 5.02,-0.078 6.7,-0.764 8.66,-1.8 9.41,-3.657 9.64,-4.356 9.53,-5.203 8.93,-5.701 7.79,-6.617 6.16,-6.696 4.72,-6.428 l -0.04,2.04 c 0,0.103 0,0.34 0,0.449 0,0.039 0,0.02 0,0.058 0.19,0.005 0.24,10e-4 0.31,-0.002 0.65,-0.029 1.56,-0.148 2.24,-0.485 0.01,-0.007 0.03,-0.022 0.03,-0.045 l 0,-0.002 c 0,-0.004 0,-0.008 0,-0.012 -0.01,-0.041 -0.03,-0.079 -0.05,-0.112 0,-0.002 0,-0.003 0,-0.004 C 7.2,-4.557 7.19,-4.571 7.19,-4.583 7.13,-4.661 7.1,-4.689 7.09,-4.696 6.97,-4.797 6.79,-4.846 6.79,-5 c 0,-0.011 0.01,-0.015 0.02,-0.022 0.14,-0.061 0.3,-0.088 0.45,-0.09 0.02,0 0.1,0.002 0.19,0.044 0.23,0.125 0.49,0.325 0.55,0.577 0.07,0.229 -0.01,0.423 -0.11,0.603 -0.07,0.106 -0.16,0.193 -0.21,0.233 -0.56,0.427 -1.25,0.59 -1.95,0.646 -0.42,0.037 -0.74,0.034 -0.93,0.026 -0.02,0 -0.04,0 -0.05,-10e-4 L 4.7,-2.986 C 4.7,-2.987 4.66,-2.99 4.65,-2.99 L 4.63,-1.827 C 4.59,-1.531 4.42,-1.181 4.11,-1.074 3.79,-1.665 3.78,-2.976 3.75,-3.079 3.72,-3.088 3.68,-3.096 3.64,-3.104 3.42,-3.142 3.19,-3.192 2.95,-3.258 2.75,-3.308 2.55,-3.366 2.35,-3.441 1.99,-3.585 1.62,-3.767 1.31,-4.072 1.28,-4.094 1.26,-4.126 1.23,-4.159 1.16,-4.275 1.11,-4.43 1.14,-4.575 c 0,-0.013 0.01,-0.054 0.03,-0.098 0.56,-0.951 1.57,-1.666 2.51,-2.105 0.07,-0.336 0.07,-0.699 0.29,-0.942 0.18,-0.053 0.39,-0.022 0.53,0.014 0.19,0.076 0.18,0.337 0.2,0.516 0.01,-0.002 0.01,-0.002 0.02,-0.004 1.64,-0.391 3.44,-0.242 4.76,0.726 0.82,0.617 1.23,1.53 1.06,2.525 0,0 -0.13,1.453 -2.18,3 -0.01,0.01 -0.02,0.02 -0.04,0.031 0,0.005 -0.01,0.01 -0.02,0.015 C 8.16,-0.79 8.01,-0.684 7.84,-0.577 7.19,-0.147 6.52,0.174 5.99,0.408 4.41,1.099 2.1,1.59 0.04,0.958 -0.26,0.851 -0.37,0.565 -0.46,0.296 -0.47,0.257 -0.49,0.183 -0.46,0.137 -0.35,0.018 -0.17,0.006 0,0 m 3.64,-6.104 c -0.8,0.293 -1.64,0.721 -2.19,1.491 -0.01,0.015 -0.02,0.029 -0.02,0.038 0,0.001 0,0.002 0,0.003 0,0.002 0,0.003 0,0.004 -0.02,0.146 0.15,0.255 0.26,0.293 0.31,0.107 0.65,0.175 0.98,0.228 0.59,0.09 0.92,0.107 1.05,0.117 0,-0.726 -0.05,-1.435 -0.08,-2.174"
           id="path8629"
           style="fill:#0079c1;fill-opacity:1;fill-rule:nonzero;stroke:none" />
      </g>
      <g
         transform="matrix(1.25,0,0,-1.25,1075.38,561.41179)"
         id="g8631">
        <path
           d="m 0,0 c -0.12,-0.027 -0.19,-0.152 -0.21,-0.243 -0.15,-0.874 -0.18,-1.788 -0.16,-2.716 0.01,-0.319 -0.04,-0.78 0.35,-0.862 0.18,-0.054 0.37,0 0.52,0.122 0.05,1.047 -0.03,2.01 -0.1,3.016 C 0.39,-0.559 0.36,-0.457 0.35,-0.406 0.29,-0.218 0.21,-0.031 0,0"
           id="path8633"
           style="fill:#0079c1;fill-opacity:1;fill-rule:nonzero;stroke:none" />
      </g>
      <g
         transform="matrix(1.25,0,0,-1.25,1085.78,565.26179)"
         id="g8635">
        <path
           d="M 0,0 C 0.04,-0.333 0.21,-0.678 0.51,-0.847 0.55,-0.868 0.62,-0.891 0.7,-0.901 1.49,-0.97 2.13,-0.557 2.72,-0.094 2.79,0.054 2.68,0.242 2.59,0.364 2.02,0.484 1.48,0.229 0.92,0.188 L 0.92,0.19 0.87,0.185 C 0.93,0.328 1.04,0.642 1.15,1 1.23,1.011 1.37,1.017 1.49,1.009 1.6,1.005 1.72,0.994 1.79,0.995 2.07,0.995 2.34,0.973 2.54,1.119 2.57,1.145 2.58,1.181 2.58,1.202 2.59,1.296 2.62,1.479 2.54,1.587 2.21,1.708 1.79,1.654 1.43,1.654 L 1.38,1.653 1.55,2.206 2.3,2.233 C 2.49,2.245 3,2.22 3.24,2.421 3.27,2.718 3,2.987 2.73,3.107 1.91,3.161 1.13,2.987 0.35,2.892 0.28,2.881 0.14,2.865 0.14,2.758 0.2,2.408 0.55,2.34 0.82,2.274 L 0.81,2.234 0.6,1.581 0.54,1.579 0.44,1.571 C 0.42,1.567 0.39,1.563 0.37,1.557 0.28,1.528 0.17,1.483 0.2,1.372 0.46,0.86 -0.05,0.512 0,0"
           id="path8637"
           style="fill:#0079c1;fill-opacity:1;fill-rule:nonzero;stroke:none" />
      </g>
      <g
         transform="matrix(1.25,0,0,-1.25,1090.2175,565.32054)"
         id="g8639">
        <path
           d="m 0,0 c 0.02,-0.05 0.05,-0.092 0.07,-0.12 -0.14,-0.288 -0.27,-0.596 -0.38,-0.919 -0.15,-0.526 -0.3,-1.056 -0.38,-1.613 -0.03,-0.127 -0.07,-0.37 -0.04,-0.585 l 0,10e-4 c 0,-0.066 0.02,-0.129 0.04,-0.187 0.14,-0.284 0.45,-0.593 0.76,-0.553 0.09,0.712 0.26,1.397 0.45,2.068 0.11,0.34 0.24,0.74 0.42,1.167 0.41,-0.07 0.73,0.05 0.73,0.05 0.85,0.296 1.66,1.102 1.84,1.976 C 3.64,1.82 3.49,2.33 3.16,2.742 3.14,2.772 3.11,2.798 3.09,2.814 3,2.884 2.89,2.929 2.77,2.931 2.68,2.93 2.57,2.873 2.5,2.84 2.06,2.586 1.67,2.226 1.32,1.81 1.31,1.802 1.3,1.795 1.3,1.788 1.09,1.534 0.8,1.151 0.5,0.673 0.42,0.766 0.42,0.96 0.43,1.078 0.53,1.9 1.36,2.45 1.26,3.303 1.11,3.314 1.01,3.171 0.9,3.072 0.87,3.034 0.83,2.99 0.79,2.943 0.2,2.212 -0.26,1.391 -0.14,0.396 -0.11,0.264 -0.06,0.12 0,0 m 1.45,0.334 c 0.09,0.164 0.19,0.33 0.29,0.496 0.23,0.382 0.5,0.755 0.81,1.099 0.01,0.008 0.01,0.017 0.02,0.027 0.01,0.007 0.02,0.014 0.02,0.022 0.07,0.067 0.13,0.135 0.2,0.201 0.02,0.013 0.04,0.027 0.07,0.02 l 0,0.001 C 2.93,2.187 2.95,2.104 2.98,2.033 2.99,1.979 3.01,1.884 3.01,1.772 3,1.344 2.83,0.972 2.5,0.679 2.18,0.424 1.8,0.223 1.39,0.221 1.41,0.259 1.43,0.297 1.45,0.334"
           id="path8641"
           style="fill:#0079c1;fill-opacity:1;fill-rule:nonzero;stroke:none" />
      </g>
      <g
         transform="matrix(1.25,0,0,-1.25,1074.0925,560.33304)"
         id="g8643">
        <path
           d="m 0,0 c 0.01,-0.049 0.01,-0.114 0.03,-0.174 0.01,-0.034 0.02,-0.073 0.04,-0.118 0.06,-0.124 0.11,-0.166 0.21,-0.166 0.17,-0.015 0.25,0.269 0.31,0.336 0.33,-0.109 0.74,-0.177 1.1,-0.067 0.25,0.08 0.47,0.187 0.7,0.335 C 2.76,0.394 3.1,0.701 3.34,1.104 3.42,1.238 3.45,1.367 3.47,1.451 3.51,1.656 3.49,1.838 3.37,1.987 3.35,2.006 3.33,2.026 3.31,2.042 3.31,2.042 3.2,2.154 3.05,2.201 3.04,2.206 3.02,2.209 3.01,2.213 2.94,2.23 2.88,2.234 2.84,2.234 2.82,2.234 2.81,2.232 2.79,2.232 2.75,2.391 2.55,2.493 2.55,2.493 2.42,2.566 2.27,2.602 2.14,2.618 L 2.12,2.62 C 1.8,2.653 1.55,2.612 1.35,2.563 1.2,2.521 1.06,2.462 0.98,2.423 0.22,2.044 -0.07,1.605 -0.18,1.349 -0.19,1.342 -0.19,1.336 -0.19,1.329 -0.21,1.3 -0.22,1.269 -0.23,1.239 -0.24,1.193 -0.25,1.161 -0.25,1.144 -0.32,0.813 -0.24,0.462 0.01,0.214 0.01,0.183 0,0.091 0,0 M 2.4,1.729 C 2.43,1.739 2.49,1.758 2.56,1.768 2.72,1.784 2.91,1.798 2.97,1.6 3.03,1.25 2.74,0.98 2.48,0.792 2.36,0.712 2.24,0.657 2.12,0.604 1.74,0.469 1.35,0.402 0.96,0.469 1.3,0.995 1.82,1.506 2.4,1.729 M 0.26,1.066 C 0.28,1.138 0.31,1.19 0.32,1.204 0.37,1.299 0.45,1.398 0.53,1.479 0.65,1.6 0.8,1.7 0.95,1.787 0.98,1.803 1.02,1.821 1.06,1.837 1.07,1.839 1.07,1.841 1.08,1.842 1.12,1.859 1.21,1.883 1.34,1.87 1.37,1.868 1.4,1.863 1.42,1.855 0.89,1.501 0.46,1.016 0.33,0.857 0.32,0.841 0.3,0.823 0.29,0.805 0.22,0.868 0.23,0.969 0.26,1.066"
           id="path8645"
           style="fill:#0079c1;fill-opacity:1;fill-rule:nonzero;stroke:none" />
      </g>
      <g
         transform="matrix(1.25,0,0,-1.25,1082.005,566.13679)"
         id="g8647">
        <path
           d="M 0,0 C 0.12,0.014 0.22,0.161 0.26,0.283 L 0.39,2.461 0.44,2.368 C 0.89,1.654 1.12,0.848 1.82,0.283 1.92,0.217 2.04,0.232 2.15,0.277 2.22,0.301 2.32,0.344 2.4,0.416 2.64,0.609 2.76,0.945 2.8,1.212 2.92,2.233 2.66,3.19 2.11,3.982 2.01,4.137 1.82,4.426 1.57,4.439 1.48,4.399 1.48,4.265 1.49,4.185 1.67,3.3 2.02,2.496 2.02,1.545 2.02,1.508 2.02,1.445 2.01,1.408 1.99,1.369 1.97,1.336 1.94,1.332 1.41,2.048 1.05,2.855 0.39,3.509 0.36,3.536 0.34,3.548 0.33,3.554 0.23,3.602 0.13,3.544 0.06,3.462 0.04,3.436 0,3.378 -0.05,3.278 -0.26,2.796 -0.36,2.259 -0.43,1.723 -0.47,1.45 -0.59,0.7 -0.4,0.283 -0.32,0.134 -0.17,-0.014 0,0"
           id="path8649"
           style="fill:#0079c1;fill-opacity:1;fill-rule:nonzero;stroke:none" />
      </g>
      <g
         transform="matrix(1.25,0,0,-1.25,1076.43,562.82804)"
         id="g8651">
        <path
           d="M 0,0 C 0,-0.052 0,-0.189 0.06,-0.298 0.11,-0.379 0.18,-0.454 0.25,-0.494 0.26,-0.5 0.29,-0.508 0.31,-0.515 0.62,-0.58 0.95,-0.604 1.28,-0.625 1.45,-0.638 1.57,-0.645 1.57,-0.645 2.2,-0.698 2.5,-0.779 2.5,-0.779 c 0.25,-0.069 0.6,-0.126 0.67,-0.435 0,-0.014 0,-0.023 -0.01,-0.035 C 2.95,-1.588 2.32,-1.704 1.9,-1.773 1.62,-1.806 0.91,-1.922 0.57,-1.64 c -0.05,0.041 -0.06,0.087 -0.06,0.114 0,0.007 0,0.014 0,0.021 l 0,10e-4 c 0,0.048 0.02,0.097 0.05,0.142 0.01,0.006 0.02,0.025 0.05,0.043 0.44,0.258 1.01,-0.295 1.46,-0.239 0.46,0.046 0.6,0.155 0.65,0.253 0.04,0.074 0.02,0.124 0.02,0.124 C 2.58,-1.047 2.22,-0.939 1.92,-0.886 1.5,-0.826 0.91,-0.737 0.49,-0.99 0.48,-0.994 0.4,-1.045 0.35,-1.123 0.27,-1.243 0.21,-1.387 0.2,-1.541 c 0,-0.027 0,-0.067 0.02,-0.114 0.21,-0.536 0.77,-0.821 1.29,-0.938 0.69,-0.112 1.44,-0.017 1.95,0.439 0.1,0.088 0.16,0.166 0.18,0.209 0.13,0.256 0.17,0.667 0.09,0.986 -0.03,0.088 -0.07,0.158 -0.1,0.202 -0.53,0.705 -1.52,0.506 -2.35,0.64 -0.1,0.014 -0.25,0.038 -0.38,0.079 -0.08,0.023 -0.12,0.045 -0.15,0.058 0,0.003 -0.01,0.008 -0.02,0.012 0,0.001 0,0.002 0,0.002 -0.02,0.014 -0.03,0.032 -0.04,0.057 0,0.014 0.01,0.022 0.01,0.025 0.72,0.29 1.59,0.25 2.39,0.344 0.26,0.039 0.53,0.029 0.7,0.224 0.01,0.006 0.02,0.016 0.03,0.03 0,0 0,0.001 0,0.002 0,0 0,0 0,0.001 0.02,0.023 0.04,0.057 0.05,0.098 0.01,0.02 0.01,0.041 0.01,0.056 0,0.003 0,0.005 0,0.008 0,0.005 0,0.009 0,0.011 0,0 0,0 0,0.001 0,0 0,0 0,0.001 0,0.017 0,0.035 -0.02,0.052 C 3.85,0.953 3.84,0.961 3.82,0.967 2.8,1.387 1.39,1.264 0.44,0.743 0.15,0.593 0.02,0.314 0,0"
           id="path8653"
           style="fill:#0079c1;fill-opacity:1;fill-rule:nonzero;stroke:none" />
      </g>
    </g>
  </g>
</svg>
